<svg width="100%" height="100%" viewBox="0 0 620 250" fill="none" xmlns="http://www.w3.org/2000/svg">
<path d="M566.609 179.014L556.213 181.158L535.197 181.542L545.593 179.398L566.609 179.014Z" fill="#4E6481"/>
<path d="M508.964 148.198L498.568 150.342L496.393 81.3217L506.789 79.1782L508.964 148.198Z" fill="#7A8AA0"/>
<path d="M546.957 222.667L536.56 224.811L500.936 225.462L511.332 223.318L546.957 222.667Z" fill="#4E6481"/>
<path d="M511.332 223.318L500.936 225.462L499.572 182.193L509.968 180.049L511.332 223.318Z" fill="#7A8AA0"/>
<path d="M429.169 154.7L418.772 156.844L488.678 39.7659L499.075 37.6216L429.169 154.7Z" fill="#909EB0"/>
<path d="M509.968 180.049L499.572 182.193L419.618 183.654L430.014 181.511L509.968 180.049Z" fill="#4E6481"/>
<path d="M544.589 147.547L565.605 147.163L566.609 179.014L545.593 179.398L546.957 222.667L511.332 223.318L509.968 180.049L430.014 181.511L429.169 154.7L499.075 37.6217L541.1 36.8538L544.589 147.547ZM508.964 148.198L506.789 79.1783L466.169 148.98L508.964 148.198Z" fill="#E6E9ED"/>
<path d="M430.014 181.511L419.618 183.654L418.772 156.844L429.169 154.7L430.014 181.511Z" fill="#7A8AA0"/>
<path d="M89.65 144.669L104.798 140.347L145.755 143.411L130.607 147.734L89.65 144.669Z" fill="#7A8AA0"/>
<path d="M132.089 79.1931L147.237 74.87L104.798 140.347L89.6501 144.669L132.089 79.1931Z" fill="#909EB0"/>
<path d="M164.019 181.919L179.166 177.596L178.238 220.569L163.09 224.892L164.019 181.919Z" fill="#BCC4CF"/>
<path d="M184.815 151.79L199.963 147.467L199.28 179.101L184.132 183.423L184.815 151.79Z" fill="#7A8AA0"/>
<path d="M164.702 150.285L179.85 145.962L199.963 147.467L184.815 151.79L164.702 150.285Z" fill="#909EB0"/>
<path d="M126.858 37.3389L142.006 33.0167L182.226 36.0256L167.079 40.3486L126.858 37.3389Z" fill="#909EB0"/>
<path d="M164.702 150.285L184.815 151.79L184.132 183.423L164.019 181.919L163.09 224.892L128.995 222.34L129.924 179.368L53.4039 173.642L53.9788 147.016L126.858 37.339L167.079 40.3487L164.702 150.285ZM130.608 147.734L132.089 79.1931L89.65 144.669L130.608 147.734Z" fill="#E6E9ED"/>
<path d="M167.079 40.3486L182.226 36.0256L179.85 145.962L164.702 150.284L167.079 40.3486Z" fill="#BCC4CF"/>
<g opacity="0.125193">
<path d="M419.644 134.667C419.644 195.474 370.351 244.77 309.541 244.77C248.733 244.77 199.437 195.474 199.437 134.667C199.437 73.8574 248.733 24.563 309.541 24.563C370.351 24.563 419.644 73.8574 419.644 134.667Z" fill="white"/>
</g>
<path d="M291.528 196.103L298.324 196.936C303.594 197.583 307.378 202.426 306.73 207.696L306.095 212.882C305.447 218.152 300.607 221.935 295.335 221.288L288.541 220.455C283.269 219.808 279.487 214.967 280.133 209.695L280.77 204.509C281.416 199.239 286.258 195.456 291.528 196.103Z" fill="#BCC4CF"/>
<path d="M368.069 154.643L371.697 145.166C373.272 141.055 377.924 138.978 382.036 140.553L389.997 143.602C394.108 145.175 396.186 149.827 394.612 153.938L390.985 163.415C389.41 167.527 384.757 169.602 380.646 168.028L372.685 164.98C368.572 163.407 366.496 158.755 368.069 154.643Z" fill="#BCC4CF"/>
<path d="M377.217 80.892L380.764 85.6503C384.087 90.1077 383.159 96.4759 378.7 99.7985L375.242 102.377C370.783 105.702 364.415 104.773 361.093 100.314L357.545 95.5536C354.222 91.0945 355.15 84.7289 359.609 81.4045L363.069 78.8273C367.526 75.503 373.894 76.4329 377.217 80.892Z" fill="#D2D8DF"/>
<path d="M298.532 48.003L308.325 48.3396C312.82 48.496 316.372 52.3031 316.218 56.7979L315.934 64.9698C315.778 69.4638 311.974 73.0168 307.478 72.8612L297.685 72.5229C293.19 72.3691 289.638 68.5628 289.794 64.0654L290.076 55.8961C290.232 51.4004 294.036 47.8491 298.532 48.003Z" fill="#D2D8DF"/>
<path d="M258.453 96.4836L254.792 101.119C250.607 106.412 242.855 107.32 237.558 103.137C232.267 98.9545 231.358 91.1983 235.542 85.9045L239.204 81.272C243.388 75.9782 251.141 75.0704 256.435 79.2524C261.728 83.4352 262.638 91.1898 258.453 96.4836Z" fill="#D2D8DF"/>
<path d="M391.432 135.937C391.432 181.932 354.145 219.222 308.147 219.222C262.149 219.222 224.861 181.932 224.861 135.937C224.861 89.9394 262.149 52.6499 308.147 52.6499C354.145 52.6499 391.432 89.9394 391.432 135.937Z" fill="#F6F7F9"/>
<g opacity="0.15">
<path opacity="0.15" d="M308.147 184.686C268.073 184.686 234.618 156.377 226.665 118.669C225.49 124.239 224.861 130.013 224.861 135.937C224.861 181.932 262.149 219.222 308.147 219.222C354.145 219.222 391.432 181.932 391.432 135.937C391.432 130.013 390.805 124.239 389.63 118.669C381.677 156.377 348.223 184.686 308.147 184.686Z" fill="#2C1248"/>
</g>
<path d="M288.09 87.9878C289.499 91.3742 286.583 95.8112 281.569 97.8997C276.556 99.9856 271.351 98.9316 269.94 95.5443C268.53 92.1562 271.449 87.7167 276.46 85.6299C281.473 83.544 286.679 84.5989 288.09 87.9878Z" fill="#DADFE4"/>
<path d="M266.639 98.5653C264.512 93.4619 268.912 86.7715 276.467 83.6248C282.051 81.3001 287.791 81.5695 291.265 83.93C288.082 80.5903 281.526 79.8729 275.166 82.5215C267.611 85.6648 263.212 92.3535 265.338 97.4594C265.893 98.7888 266.84 99.8743 268.064 100.706C267.466 100.079 266.975 99.3719 266.639 98.5653Z" fill="#DADFE4"/>
<g opacity="0.15">
<path opacity="0.15" d="M288.09 87.9878C287.745 87.1608 287.175 86.4765 286.438 85.9419C287.399 89.2577 284.532 93.3794 279.757 95.3675C275.966 96.9477 272.066 96.7258 269.779 95.0598C269.826 95.2222 269.875 95.3845 269.939 95.5443C271.35 98.9316 276.556 99.9856 281.569 97.8997C286.58 95.8112 289.499 91.3742 288.09 87.9878Z" fill="#2C1248"/>
</g>
<path d="M316.771 68.8042C316.996 70.8263 314.248 72.7873 310.636 73.1868C307.023 73.5871 303.914 72.2722 303.691 70.25C303.469 68.2279 306.213 66.2669 309.826 65.8674C313.438 65.4671 316.548 66.782 316.771 68.8042Z" fill="#DADFE4"/>
<path d="M333.979 98.6698C332.377 97.7458 332.065 95.2528 333.137 92.8719C332.986 93.0819 332.833 93.2918 332.698 93.5256C331.21 96.1028 331.431 99.0157 333.192 100.031C334.955 101.047 337.588 99.785 339.075 97.207C339.21 96.9732 339.313 96.736 339.422 96.4989C337.894 98.6188 335.582 99.5946 333.979 98.6698Z" fill="#DADFE4"/>
<g opacity="0.15">
<path opacity="0.15" d="M301.217 71.2632C300.857 68.0281 305.256 64.8873 311.04 64.2473C313.487 63.9778 315.785 64.2005 317.654 64.7921C315.602 63.784 312.715 63.3242 309.584 63.6693C303.801 64.3102 299.403 67.4492 299.763 70.6852C299.967 72.5501 301.717 74.0359 304.263 74.8391C302.523 73.9891 301.381 72.7464 301.217 71.2632Z" fill="#2C1248"/>
</g>
<g opacity="0.15">
<path opacity="0.15" d="M316.771 68.8042C316.581 67.0566 314.225 65.8394 311.255 65.8003C312.893 66.295 314.021 67.2359 314.152 68.4217C314.375 70.4413 311.628 72.4039 308.015 72.8043C307.528 72.8587 307.051 72.8782 306.589 72.8723C307.742 73.2208 309.144 73.3534 310.636 73.1868C314.248 72.7873 316.996 70.8263 316.771 68.8042Z" fill="#2C1248"/>
</g>
<path d="M247.646 118.101C250.758 120.045 250.988 125.288 248.162 129.813C245.335 134.336 240.521 136.428 237.41 134.482C234.297 132.536 234.064 127.293 236.892 122.77C239.719 118.246 244.533 116.157 247.646 118.101Z" fill="#DADFE4"/>
<g opacity="0.15">
<path opacity="0.15" d="M249.448 115.778C252.766 117.854 253.466 122.915 251.428 127.876C254.271 122.892 253.916 117.305 250.524 115.185C248.766 114.088 246.528 114.128 244.33 115.08C246.174 114.658 247.964 114.853 249.448 115.778Z" fill="#2C1248"/>
</g>
<g opacity="0.15">
<path opacity="0.15" d="M235.312 136.218C231.048 133.555 230.444 126.714 233.684 120.399C233.339 120.862 233.002 121.34 232.687 121.844C228.499 128.545 228.841 136.313 233.452 139.195C238.064 142.076 245.194 138.978 249.382 132.278C249.697 131.773 249.98 131.259 250.243 130.746C245.989 136.428 239.575 138.883 235.312 136.218Z" fill="#2C1248"/>
</g>
<g opacity="0.15">
<path opacity="0.15" d="M247.646 118.101C244.533 116.157 239.719 118.246 236.892 122.77C236.45 123.48 236.091 124.204 235.798 124.932C238.63 121.797 242.46 120.556 245.085 122.198C247.71 123.839 248.277 127.826 246.697 131.746C247.223 131.163 247.721 130.521 248.162 129.813C250.99 125.288 250.758 120.045 247.646 118.101Z" fill="#2C1248"/>
</g>
<path d="M271.967 151.24C278.707 155.453 281.381 163.334 277.939 168.845C274.496 174.355 266.24 175.405 259.498 171.193C252.756 166.982 250.084 159.1 253.527 153.589C256.969 148.079 265.226 147.028 271.967 151.24Z" fill="#DADFE4"/>
<g opacity="0.15">
<path opacity="0.15" d="M253.527 161.319C256.969 155.808 265.226 154.754 271.967 158.968C275.31 161.057 277.646 164.049 278.741 167.205C280.817 161.861 278.066 155.052 271.967 151.24C265.226 147.028 256.969 148.079 253.527 153.589C251.791 156.367 251.613 159.747 252.724 162.958C252.944 162.395 253.2 161.844 253.527 161.319Z" fill="#2C1248"/>
</g>
<g opacity="0.15">
<path opacity="0.15" d="M285.928 162.758C286.054 165.515 285.47 168.228 284.069 170.656C279.427 178.697 267.69 180.611 257.856 174.931C252.463 171.818 248.777 167.069 247.297 162.089C247.585 168.455 251.699 175.068 258.561 179.03C268.398 184.709 280.133 182.795 284.776 174.757C286.873 171.124 287.147 166.863 285.928 162.758Z" fill="#2C1248"/>
</g>
<g opacity="0.15">
<path opacity="0.15" d="M278.235 198.63C280.875 194.405 287.897 194.03 293.921 197.797C298.074 200.391 300.664 204.272 301.011 207.818C301.34 203.924 298.647 199.304 293.921 196.35C287.897 192.587 280.875 192.96 278.235 197.183C277.415 198.496 277.115 200.026 277.271 201.624C277.363 200.555 277.668 199.537 278.235 198.63Z" fill="#2C1248"/>
</g>
<g opacity="0.15">
<path opacity="0.15" d="M296.832 204.499C296.72 205.089 296.545 205.657 296.224 206.172C294.281 209.281 289.11 209.556 284.676 206.786C282.489 205.417 280.898 203.564 280.071 201.664C279.506 204.634 281.487 208.33 285.189 210.641C289.623 213.414 294.793 213.139 296.737 210.028C297.721 208.452 297.683 206.451 296.832 204.499Z" fill="#2C1248"/>
</g>
<path d="M351.73 152.244C361.823 158.551 365.439 170.975 359.806 179.991C354.172 189.007 341.421 191.202 331.328 184.895C321.234 178.587 317.62 166.166 323.251 157.15C328.886 148.133 341.637 145.938 351.73 152.244Z" fill="#DADFE4"/>
<g opacity="0.15">
<path opacity="0.15" d="M328.88 168.43C334.514 159.414 347.263 157.217 357.356 163.525C359.192 164.671 360.803 166.024 362.193 167.517C361.233 161.607 357.579 155.899 351.73 152.244C341.637 145.938 328.886 148.133 323.252 157.15C318.642 164.526 320.232 174.183 326.492 180.906C325.795 176.615 326.511 172.221 328.88 168.43Z" fill="#2C1248"/>
</g>
<g opacity="0.15">
<path opacity="0.15" d="M367.943 165.022C367.984 170.253 366.568 175.608 363.55 180.436C355.386 193.502 338.622 197.753 326.107 189.932C319.93 186.07 315.948 179.991 314.475 173.253C314.543 182.173 318.856 190.724 326.745 195.656C339.26 203.476 356.023 199.226 364.189 186.159C368.324 179.544 369.456 171.937 367.943 165.022Z" fill="#2C1248"/>
</g>
<path d="M290.35 126.758C289.766 128.441 287.31 129.115 284.866 128.267C282.423 127.418 280.915 125.367 281.499 123.686C282.083 122.004 284.537 121.329 286.982 122.177C289.426 123.026 290.934 125.078 290.35 126.758Z" fill="#DADFE4"/>
<g opacity="0.15">
<path opacity="0.15" d="M291.442 124.011C291.926 124.942 292.065 125.929 291.75 126.836C290.959 129.116 287.633 130.03 284.319 128.88C282.792 128.35 281.538 127.47 280.704 126.454C281.436 127.863 282.965 129.146 284.96 129.838C288.271 130.989 291.599 130.075 292.39 127.795C292.817 126.567 292.414 125.197 291.442 124.011Z" fill="#2C1248"/>
</g>
<g opacity="0.15">
<path opacity="0.15" d="M282.649 124.878C283.233 123.197 285.687 122.521 288.131 123.371C288.798 123.601 289.387 123.929 289.892 124.31C289.294 123.418 288.276 122.626 286.982 122.177C284.537 121.329 282.083 122.004 281.499 123.686C281.075 124.908 281.764 126.319 283.106 127.329C282.576 126.539 282.373 125.668 282.649 124.878Z" fill="#2C1248"/>
</g>
<g opacity="0.15">
<path opacity="0.15" d="M327.375 120.927C325.645 120.326 323.868 120.764 322.895 121.878C323.632 121.752 324.444 121.807 325.244 122.085C327.411 122.836 328.662 124.914 328.031 126.725C327.909 127.08 327.72 127.398 327.485 127.676C328.731 127.449 329.768 126.7 330.161 125.57C330.789 123.758 329.542 121.68 327.375 120.927Z" fill="#2C1248"/>
</g>
<g opacity="0.15">
<path opacity="0.15" d="M326.148 128.939C321.718 127.724 318.951 123.737 319.967 120.037C320.146 119.385 320.445 118.795 320.815 118.257C319.601 119.094 318.699 120.269 318.306 121.698C317.287 125.398 320.055 129.385 324.485 130.603C328.122 131.601 331.719 130.402 333.464 127.9C331.54 129.212 328.85 129.683 326.148 128.939Z" fill="#2C1248"/>
</g>
<g opacity="0.15">
<path opacity="0.15" d="M370.659 127.283C370.699 127.937 370.498 128.648 370.023 129.254C369.11 130.418 367.582 130.743 366.609 129.979C366.423 129.833 366.273 129.657 366.155 129.461C366.209 130.03 366.435 130.552 366.881 130.9C367.852 131.662 369.381 131.337 370.294 130.176C371.014 129.258 371.114 128.11 370.659 127.283Z" fill="#2C1248"/>
</g>
<g opacity="0.15">
<path opacity="0.15" d="M334.653 93.0887C335.974 92.2481 337.613 92.464 338.314 93.5656C338.661 94.1147 338.712 94.7751 338.515 95.4084C339.177 94.5601 339.328 93.4712 338.802 92.645C338.101 91.5426 336.462 91.3267 335.141 92.1673C334.477 92.5889 334.05 93.2009 333.847 93.8393C334.069 93.5596 334.324 93.297 334.653 93.0887Z" fill="#2C1248"/>
</g>
<g opacity="0.15">
<path opacity="0.15" d="M370.015 103.825C369.626 102.577 368.099 101.946 366.605 102.413C365.959 102.615 365.442 102.995 365.074 103.456C365.346 103.263 365.647 103.097 365.991 102.99C367.484 102.523 369.012 103.154 369.403 104.402C369.625 105.115 369.419 105.868 368.932 106.474C369.847 105.832 370.317 104.789 370.015 103.825Z" fill="#2C1248"/>
</g>
<g opacity="0.15">
<path opacity="0.15" d="M337.379 77.3101C337.721 75.6313 340.466 74.7771 343.51 75.3984C344.331 75.5667 345.081 75.8285 345.743 76.149C344.905 75.1647 343.369 74.3155 341.504 73.9347C338.461 73.3134 335.716 74.1693 335.373 75.8472C335.124 77.0755 336.241 78.3964 338.046 79.2634C337.511 78.6403 337.246 77.962 337.379 77.3101Z" fill="#2C1248"/>
</g>
<path d="M238.569 170.219C236.299 165.462 232.769 162.384 230.712 163.395C230.296 163.598 230.139 163.971 230.06 164.025C231.431 164.495 234.217 167.204 236.228 171.415C238.162 175.468 237.906 179.232 237.536 180.719C238.284 180.979 238.883 180.646 238.934 180.622C241.004 179.636 240.84 174.978 238.569 170.219Z" fill="#2C1248"/>
<path d="M236.192 171.342C238.392 175.951 239.231 180.139 238.066 180.694C236.902 181.25 234.174 177.965 231.976 173.356C229.774 168.746 228.937 164.56 230.101 164.005C231.265 163.449 233.992 166.734 236.192 171.342Z" fill="#BCC4CF"/>
<g opacity="0.15">
<path opacity="0.15" d="M236.192 171.342C235.978 170.893 235.755 170.468 235.533 170.047C237.273 174.105 237.866 177.568 236.813 178.071C235.763 178.572 233.444 175.933 231.383 172.028C231.57 172.467 231.762 172.905 231.978 173.356C234.175 177.965 236.902 181.25 238.066 180.694C239.231 180.137 238.392 175.951 236.192 171.342Z" fill="#2C1248"/>
</g>
<g opacity="0.15">
<path opacity="0.15" d="M368.729 107.636C366.47 108.367 364.13 107.392 363.501 105.455C363.15 104.374 363.423 103.233 364.114 102.298C362.829 103.307 362.21 104.878 362.68 106.322C363.306 108.259 365.647 109.234 367.906 108.503C368.904 108.177 369.701 107.568 370.247 106.828C369.811 107.171 369.3 107.449 368.729 107.636Z" fill="#2C1248"/>
</g>
</svg>
