<svg width="100%" height="100%" viewBox="0 0 440 300" fill="none" xmlns="http://www.w3.org/2000/svg">
<path d="M55.5669 102.478C59.1912 102.478 62.1339 105.572 62.1339 109.382C62.1339 113.192 59.1912 116.286 55.5669 116.286C51.9426 116.286 49 113.192 49 109.382C49 105.572 51.9426 102.478 55.5669 102.478Z" fill="#B3C3C6"/>
<path d="M357.647 157.71C361.271 157.71 364.214 160.804 364.214 164.614C364.214 168.424 361.271 171.518 357.647 171.518C354.022 171.518 351.08 168.424 351.08 164.614C351.08 160.804 354.022 157.71 357.647 157.71Z" fill="#B3C3C6"/>
<path d="M300.186 11C303.81 11 306.753 14.0937 306.753 17.904C306.753 21.7143 303.81 24.808 300.186 24.808C296.561 24.808 293.619 21.7143 293.619 17.904C293.619 14.0937 296.561 11 300.186 11Z" stroke="#B3C1C6" stroke-width="1.39716"/>
<g opacity="0.805371">
<path d="M122.717 50.8561C122.745 56.2459 118.606 60.6462 113.479 60.676C108.352 60.7059 104.167 56.354 104.139 50.9643C104.11 45.5745 108.25 41.1743 113.376 41.1444C118.503 41.1146 122.688 45.4664 122.717 50.8561Z" stroke="#B3C1C6" stroke-width="1.31756"/>
<path d="M90.2462 183.709L76.3701 185.041L76.2294 183.42L90.1055 182.088L90.2462 183.709ZM84.5715 189.974L83.0297 190.122L81.9041 177.155L83.4459 177.007L84.5715 189.974Z" fill="#CAD4D6"/>
<path d="M389.504 108.934L376.747 114.824L376.124 113.334L388.882 107.443L389.504 108.934ZM386.013 116.768L384.595 117.422L379.615 105.5L381.033 104.845L386.013 116.768Z" fill="#CAD4D6"/>
<path d="M223.094 39.2899L218.889 53.2558L217.413 52.7646L221.618 38.7987L223.094 39.2899ZM226.391 47.2162L225.924 48.768L214.116 44.8383L214.583 43.2865L226.391 47.2162Z" fill="#CAD4D6"/>
</g>
<path d="M242.151 143.615L272.507 175.529L255.906 192.982L225.55 161.068L242.151 143.615Z" fill="#D7D7D7"/>
<path d="M272.752 163.793L309.766 202.707C313.514 206.647 313.514 213.045 309.766 216.986L294.763 232.759C291.015 236.699 284.929 236.699 281.181 232.759L244.167 193.845C240.419 189.905 240.419 183.507 244.167 179.566L259.17 163.793C262.918 159.853 269.004 159.853 272.752 163.793Z" fill="#BFBFC7"/>
<path d="M247.018 158.252C270.774 133.142 270.749 92.4111 246.976 67.2736C223.203 42.1361 184.67 42.123 160.924 67.2326C137.168 92.3432 137.183 133.075 160.965 158.201C184.738 183.339 223.262 183.363 247.018 158.252Z" fill="#B1B1B6"/>
<path d="M168.153 77.0105C186.891 57.3108 217.333 57.3263 236.089 77.0452C254.845 96.764 254.86 128.769 236.122 148.468C217.384 168.168 186.942 168.153 168.186 148.434C149.43 128.715 149.415 96.7103 168.153 77.0105Z" fill="white"/>
<g opacity="0.92">
<path d="M188.153 99.0012C190.509 99.0012 192.422 102.834 192.422 107.554C192.422 112.274 190.509 116.106 188.153 116.106C185.798 116.106 183.885 112.274 183.885 107.554C183.885 102.834 185.798 99.0012 188.153 99.0012Z" fill="black"/>
</g>
<g opacity="0.92">
<path d="M215.08 99.0012C217.436 99.0012 219.349 102.834 219.349 107.554C219.349 112.274 217.436 116.106 215.08 116.106C212.724 116.106 210.812 112.274 210.812 107.554C210.812 102.834 212.724 99.0012 215.08 99.0012Z" fill="black"/>
</g>
<g opacity="0.398489">
<path d="M257.736 93.8068C263.837 93.8068 268.784 90.0062 268.784 85.3151C268.784 80.6241 257.736 69.2869 257.736 69.2869C257.736 69.2869 246.689 80.6241 246.689 85.3151C246.689 90.0062 251.636 93.8068 257.736 93.8068Z" fill="url(#paint0_linear)"/>
</g>
<path d="M212.119 132.57C198.985 125.666 188.458 133.361 190.187 132.967C197.75 131.244 212.624 132.835 212.119 132.57Z" fill="#748394"/>
<path d="M197.126 236.533C206.642 236.533 214.368 238.033 214.368 239.881C214.368 241.728 206.642 243.228 197.126 243.228C187.61 243.228 179.884 241.728 179.884 239.881C179.884 238.033 187.61 236.533 197.126 236.533Z" fill="#D8DBDF"/>
<defs>
<linearGradient id="paint0_linear" x1="257.748" y1="75.5872" x2="264.577" y2="93.5884" gradientUnits="userSpaceOnUse">
<stop stop-color="#B0F9FF"/>
<stop offset="0.5" stop-color="#B6F3FE"/>
<stop offset="1" stop-color="#BCEEFD"/>
</linearGradient>
</defs>
</svg>
