<svg width="227" height="227" viewBox="0 0 227 227" fill="none" xmlns="http://www.w3.org/2000/svg">
<path d="M27.24 22.7L62.3921 61.223L112.58 116.224L199.76 153.906L27.24 22.7ZM22.5797 89.3544L29.863 91.5307L57.1783 99.6922L113.107 116.403L213.954 114.945L22.5797 89.3544ZM136.194 23.5907L128.169 55.2259L112.728 116.1L132.12 206.587L136.194 23.5907ZM194.312 24.97L112.138 116.678L34.958 166.164L194.312 24.97ZM38.3135 35.1025L27.921 91.027L51.1245 156.031L129.389 194.94L182.187 146.044L197.348 115.514L133.086 37.5553L38.3135 35.1025ZM66.8038 66.0985L49.938 87.1527L43.2149 95.5452L72.5043 142.217L126.241 177.337L149.558 153.383L162.096 137.919L177.147 116.166L177.401 115.799L146.312 87.7379L142.128 83.9616L127.083 61.3556L116.759 63.5443L66.8038 66.0985ZM80.4336 81.4049L66.965 102.676L83.1905 135.411L120.529 150.595L146.839 131.258L152.515 116.001L132.47 94.4635L120.826 84.352L80.4336 81.4049ZM99.6133 102.051L94.7827 110.931L101.972 123.28L114.797 125.331L125.692 121.897L127.989 116.365L122.758 104.848L116.446 100.788L99.6133 102.051Z" stroke="black" stroke-width="0.454" stroke-linecap="round" stroke-linejoin="round"/>
<path d="M130.947 49.4287C128.856 47.2342 130.474 43.8089 130.357 41.3451C130.237 38.8186 125.499 37.6786 125.521 34.9844C125.55 31.3093 127.593 28.8383 128.144 24.8787C128.461 22.6008 126.615 17.387 126.615 17.387" stroke="black" stroke-opacity="0.965283" stroke-width="0.454" stroke-linecap="round" stroke-linejoin="round"/>
<path d="M113.024 67.8736L114.648 64.6965M121.915 56.2925L119.014 59.5185L121.915 56.2925ZM115.623 55.6159L117.213 59.3967L115.623 55.6159ZM114.203 55.848L114.841 59.5388L114.203 55.848ZM119.543 69.2893L118.664 64.8848L119.543 69.2893ZM117.911 68.971L116.985 65.1242L117.911 68.971Z" stroke="#736E6F" stroke-width="0.71505" stroke-linecap="round" stroke-linejoin="round"/>
<path d="M119.173 59.0068C118.802 58.839 118.395 58.736 117.965 58.7155L117.569 58.6966L116.984 58.6688L116.286 58.6355C116.075 58.6255 115.868 58.6352 115.666 58.6636C115.362 58.7064 115.071 58.792 114.797 58.9123L114.281 59.1969C113.433 59.7654 112.852 60.712 112.8 61.8043L112.79 62.0277C112.735 63.1686 113.271 64.2064 114.124 64.8482L114.629 65.1609C114.854 65.2743 115.093 65.3655 115.345 65.4255C115.543 65.4739 115.748 65.5031 115.958 65.5132L116.656 65.5463L117.242 65.5743L117.638 65.5931C118.017 65.6112 118.385 65.5634 118.73 65.4616L119.291 65.2388C120.328 64.7138 121.065 63.6617 121.124 62.4244L121.134 62.201C121.191 61.0124 120.609 59.935 119.693 59.3013L119.173 59.0068ZM116.286 58.6355L117.966 58.7157C119.796 58.8029 121.221 60.3708 121.134 62.2011L121.124 62.4244C121.036 64.2538 119.468 65.6803 117.638 65.5931L115.958 65.5134C115.748 65.5033 115.543 65.4741 115.345 65.4257L115.666 58.6637C115.868 58.6352 116.075 58.6256 116.286 58.6355Z" fill="#736E6F"/>
<path d="M116.286 58.6355L117.966 58.7157C119.796 58.8028 121.221 60.3707 121.134 62.2011L121.124 62.4244C121.036 64.2538 119.468 65.6803 117.638 65.593L115.958 65.5133C115.748 65.5033 115.543 65.4741 115.345 65.4256L115.666 58.6637C115.868 58.6352 116.075 58.6256 116.286 58.6355Z" fill="#544F4E"/>
<path d="M148.707 159.231L147.721 155.801M147.279 144.7L147.368 149.037L147.279 144.7ZM142.225 148.507L145.97 150.18L142.225 148.507ZM141.347 149.647L144.336 151.905L141.347 149.647ZM154.433 155.807L150.78 153.193L154.433 155.807ZM153.024 156.691L149.719 154.516L153.024 156.691Z" stroke="#736E6F" stroke-width="0.71505" stroke-linecap="round" stroke-linejoin="round"/>
<path d="M147.134 148.555C146.748 148.686 146.381 148.889 146.053 149.168L145.751 149.425L145.305 149.805L144.773 150.258C144.612 150.395 144.468 150.543 144.34 150.702C144.147 150.941 143.993 151.203 143.876 151.478L143.693 152.039C143.463 153.033 143.686 154.121 144.395 154.954L144.54 155.124C145.28 155.994 146.38 156.385 147.442 156.27L148.024 156.153C148.266 156.082 148.503 155.985 148.727 155.857C148.905 155.757 149.075 155.638 149.235 155.502L149.767 155.049L150.214 154.669L150.516 154.412C150.805 154.166 151.04 153.88 151.223 153.569L151.48 153.023C151.878 151.931 151.696 150.66 150.894 149.716L150.749 149.546C149.977 148.64 148.816 148.251 147.715 148.415L147.134 148.555ZM144.773 150.258L146.053 149.168C147.449 147.981 149.561 148.151 150.749 149.546L150.894 149.716C152.081 151.111 151.911 153.224 150.516 154.412L149.235 155.502C149.075 155.638 148.905 155.757 148.727 155.857L144.34 150.702C144.468 150.543 144.612 150.395 144.773 150.258Z" fill="#736E6F"/>
<path d="M144.773 150.258L146.053 149.168C147.449 147.981 149.561 148.151 150.749 149.546L150.894 149.716C152.081 151.111 151.911 153.224 150.516 154.412L149.235 155.502C149.075 155.638 148.905 155.757 148.727 155.857L144.34 150.702C144.468 150.543 144.612 150.395 144.773 150.258Z" fill="#544F4E"/>
</svg>
